# xmcd
#
# Track frame offsets:
#	182
#	18770
#	39220
#	59505
#	78057
#	98200
#	120972
#	140745
#	160855
#	178707
#
# Disc length: 2649 seconds
#
# Revision: 0
# Processed by: cddbd v1.5.1PL2 Copyright (c) Steve Scherf et al.
# Submitted via: EasyCDDAExtractor 9.0.0.1
#
DISCID=710a570a
DTITLE=Banda Gorda - Libre Al Fin
DYEAR=1994
DGENRE=Merengue
TTITLE0=Las Mujeres Modernas
TTITLE1=La Rumba
TTITLE2=Son Mentira
TTITLE3=Hipocrita
TTITLE4=La Pena
TTITLE5=Y Que Es Lo Que Tu Mama Se Cree
TTITLE6=De Todo Mucho
TTITLE7=Todas Son Celosas
TTITLE8=Amigo De Que
TTITLE9=Queriendote
EXTD=
EXTT0=
EXTT1=
EXTT2=
EXTT3=
EXTT4=
EXTT5=
EXTT6=
EXTT7=
EXTT8=
EXTT9=
PLAYORDER=
